<svg width="160" height="100" viewBox="0 0 160 100" fill="none" xmlns="http://www.w3.org/2000/svg">
<g id="LOGO NDDU">
<g id="Vector">
<path fill-rule="evenodd" clip-rule="evenodd" d="M13.2807 68.4762C12.8644 68.7548 12.4466 69.0356 12.0274 69.3187V70.2262H12V79.6537V99.9262H16.75C17.65 99.9262 18.25 99.7429 18.55 99.3762C18.85 98.9762 19 98.2096 19 97.0762V84.9321C20.0097 85.1752 21.1639 85.3879 22.4831 85.558C23.095 89.1495 23.6173 92.0889 24.05 94.3762C24.5167 96.8762 25.05 98.4262 25.65 99.0262C26.2833 99.6262 27.5833 99.9262 29.55 99.9262H36.65C37.7833 99.9262 38.5167 99.7429 38.85 99.3762C39.2167 99.0096 39.4 98.2429 39.4 97.0762V85.618C41.7691 85.435 44.3423 85.1814 47.1371 84.847V96.6782C47.1371 97.9929 47.3498 98.8822 47.7751 99.3462C48.2005 99.7716 49.0511 99.9842 50.3271 99.9842H56.4171V83.5582C59.0605 83.1454 61.8607 82.6728 64.8271 82.135V92.7342C64.8271 93.3916 64.6725 93.8362 64.3631 94.0682C64.0538 94.3002 63.4158 94.4162 62.4491 94.4162H58.1571V99.9262H66.6831C69.7378 99.9262 71.8451 99.2109 73.0051 97.7802C74.1651 96.3109 74.7451 93.2756 74.7451 88.6742L74.6952 80.2269C76.0985 79.9398 77.5332 79.6402 79 79.3275C80.4465 79.0191 81.8619 78.7233 83.2467 78.4399V96.3422C83.2467 97.7929 83.4814 98.7742 83.9507 99.2862C84.4201 99.7556 85.3587 99.9902 86.7667 99.9902H93.4867V76.4631C96.7821 75.8685 99.8711 75.3547 102.767 74.9142V91.9902C102.767 92.7156 102.596 93.2062 102.255 93.4622C101.913 93.7182 101.209 93.8462 100.143 93.8462H95.4067V99.9262H104.815C108.185 99.9262 110.511 99.1369 111.791 97.5582C113.071 95.9369 113.711 92.5876 113.711 87.5102L113.647 76.6942L113.679 73.49C116.561 73.1851 119.186 72.9719 121.578 72.8373V94.3262C121.578 96.3929 122.194 97.8429 123.428 98.6762C124.694 99.5096 126.544 99.9262 128.978 99.9262H136.328V95.1762H130.928C130.328 95.1762 129.944 95.0762 129.778 94.8762C129.644 94.6429 129.578 94.2596 129.578 93.7262V72.6767C132.982 72.7562 135.684 73.0479 137.828 73.4678V94.3262C137.828 96.3929 138.444 97.8429 139.678 98.6762C140.944 99.5096 142.794 99.9262 145.228 99.9262H148.078V95.1762H147.178C146.578 95.1762 146.194 95.0762 146.028 94.8762C145.894 94.6429 145.828 94.2596 145.828 93.7262V78.0444C145.904 78.2605 145.948 78.4578 145.973 78.6294V79.3275C145.973 79.3275 146.034 79.0588 145.973 78.6294V69.3187C145.924 69.2865 145.876 69.2543 145.828 69.2222V66.6262C145.828 65.4596 145.644 64.6929 145.278 64.3262C144.944 63.9596 144.211 63.7762 143.078 63.7762H137.828V64.0582C92.9098 36.0409 64.6618 36.0147 20.5161 63.7762H12V68.4762H13.2807ZM29.8379 85.9986C26.9439 85.9819 24.5174 85.8204 22.4831 85.558C21.7752 81.4034 20.9476 76.3761 20 70.4762C19.8667 69.6429 19.6667 69.1096 19.4 68.8762C19.1667 68.6429 18.75 68.5096 18.15 68.4762H13.2807C15.7415 66.8299 18.1516 65.2632 20.5161 63.7762H22.85C23.6833 63.7762 24.35 63.8762 24.85 64.0762C25.35 64.2762 25.75 64.7096 26.05 65.3762C26.3833 66.0096 26.6 66.6262 26.7 67.2262C26.8333 67.8262 26.9667 68.5262 27.1 69.3262C27.2667 70.2929 27.5 71.7096 27.8 73.5762C28.2656 76.6708 28.9449 80.8116 29.8379 85.9986ZM29.8379 85.9986C30.6542 86.0033 31.5077 85.9965 32.4 85.9772V95.0762C31.9333 95.0096 31.6 94.8096 31.4 94.4762C31.2333 94.1096 30.9167 92.4596 30.45 89.5262C30.2359 88.301 30.0318 87.1251 29.8379 85.9986ZM137.828 64.0582V73.4678C143.648 74.608 145.354 76.6936 145.828 78.0444V69.2222C143.101 67.4065 140.436 65.6852 137.828 64.0582ZM129.578 72.6767V63.7762H124.328C123.194 63.7762 122.444 63.9596 122.078 64.3262C121.744 64.6929 121.578 65.4596 121.578 66.6262V72.8373C124.602 72.6671 127.254 72.6224 129.578 72.6767ZM113.679 73.49L113.775 64.1502C113.775 60.0116 113.156 57.2382 111.919 55.8302C110.724 54.3796 108.569 53.6542 105.455 53.6542H95.4067V59.7342H100.143C101.209 59.7342 101.913 59.8622 102.255 60.1182C102.596 60.3742 102.767 60.8862 102.767 61.6542V74.9142C106.761 74.3065 110.387 73.8383 113.679 73.49ZM93.4867 76.4631V53.6542H86.7667C85.3587 53.6542 84.4201 53.9102 83.9507 54.4222C83.4814 54.8916 83.2467 55.8516 83.2467 57.3022V78.4399C86.8642 77.6995 90.2735 77.0429 93.4867 76.4631ZM74.6952 80.2269L74.6871 78.8722L74.8031 67.5042C74.8031 63.7536 74.2425 61.2402 73.1211 59.9642C72.0385 58.6496 70.0858 57.9922 67.2631 57.9922H58.1571V63.5022H62.4491C63.4158 63.5022 64.0538 63.6182 64.3631 63.8502C64.6725 64.0822 64.8271 64.5462 64.8271 65.2422V82.135C67.931 81.5724 71.2168 80.9384 74.6952 80.2269ZM56.4171 83.5582V57.9922H50.3271C49.0511 57.9922 48.2005 58.2242 47.7751 58.6882C47.3498 59.1136 47.1371 59.9836 47.1371 61.2982V84.847C49.9928 84.5054 53.08 84.0794 56.4171 83.5582ZM32.4 85.9772V65.7762C32.4 65.1762 32.5667 64.6929 32.9 64.3262C33.2333 63.9596 33.6667 63.7762 34.2 63.7762H39.4V85.618C36.8348 85.8161 34.5088 85.9316 32.4 85.9772ZM19 84.9321V72.2262C19 71.6262 18.8333 71.1429 18.5 70.7762C18.1667 70.4096 17.7333 70.2262 17.2 70.2262H12.0274V79.3275C12.0274 79.3275 12 79.4469 12 79.6537C12 80.6014 12.5756 83.3849 19 84.9321Z" fill="#194A81"/>
<path d="M37 33L27 24H133L123 33V49C89.0112 33.2389 70.1652 32.6078 37 49V33Z" fill="#194A81"/>
<path d="M63 15H73V10H79L80 0H81L82 10H88V15H98V21H63V15Z" fill="#194A81"/>
<path d="M0 69.3182L10 64V100H7L0 69.3182Z" fill="#194A81"/>
<path d="M160 69.3182L150 64V100H153L160 69.3182Z" fill="#194A81"/>
</g>
</g>
</svg>
