<svg width="3020" height="1355" viewBox="0 0 3020 1355" fill="none" xmlns="http://www.w3.org/2000/svg">
<path opacity="0.98" fill-rule="evenodd" clip-rule="evenodd" d="M2680.06 0C2771.77 8.437 2863.43 17.271 2955.06 26.5C2905.81 56.045 2856.31 85.211 2806.56 114C2765.06 77.167 2723.56 40.333 2682.06 3.5C2680.74 2.684 2680.07 1.517 2680.06 0Z" fill="#FE0000"/>
<path opacity="0.975" fill-rule="evenodd" clip-rule="evenodd" d="M2672.06 9C2683.5 53.085 2694.5 97.418 2705.06 142C2705.56 142.333 2706.06 142.667 2706.56 143C2733.06 136.747 2759.56 130.914 2786.06 125.5C2713.39 167.839 2640.39 209.672 2567.06 251C2565.98 250.135 2565.81 249.135 2566.56 248C2602.84 168.777 2638.01 89.111 2672.06 9Z" fill="#FE0000"/>
<path opacity="0.979" fill-rule="evenodd" clip-rule="evenodd" d="M2962.06 34C2964.02 36.467 2965.19 39.467 2965.56 43C2984.13 130.034 3001.97 217.034 3019.06 304C2978.88 267.981 2938.54 232.148 2898.06 196.5C2896 194.781 2894.34 192.781 2893.06 190.5C2915.97 138.268 2938.97 86.101 2962.06 34Z" fill="#FE0000"/>
<path opacity="0.976" fill-rule="evenodd" clip-rule="evenodd" d="M2882.06 213C2882.94 212.869 2883.6 213.202 2884.06 214C2880.7 240.944 2877.7 267.944 2875.06 295C2920.78 300.424 2966.45 306.257 3012.06 312.5C2936.07 355.491 2860.74 399.491 2786.06 444.5C2785.06 445.17 2784.06 445.17 2783.06 444.5C2816.55 367.531 2849.55 290.365 2882.06 213Z" fill="#FE0000"/>
<path opacity="0.978" fill-rule="evenodd" clip-rule="evenodd" d="M2571.06 262C2625.37 268.812 2679.7 275.479 2734.06 282C2746.79 335.556 2759.12 388.89 2771.06 442C2706.21 383.981 2641.21 326.148 2576.06 268.5C2573.77 266.723 2572.1 264.556 2571.06 262Z" fill="#FE0000"/>
<path opacity="0.997" fill-rule="evenodd" clip-rule="evenodd" d="M0.0626406 308C87.3956 308 174.73 308 262.063 308C261.896 517.33 262.063 726.67 262.563 936C268.853 1000.79 301.019 1047.62 359.063 1076.5C375.321 1083.81 392.321 1088.47 410.063 1090.5C503.062 1091 596.062 1091.17 689.063 1091C688.896 963 689.063 835 689.563 707C702.655 563.56 768.823 452.4 888.063 373.5C951.113 334.372 1019.78 312.706 1094.06 308.5C1275.73 308 1457.39 307.833 1639.06 308C1639.06 395.333 1639.06 482.67 1639.06 570C1461.39 569.83 1283.73 570 1106.06 570.5C1039.36 577.56 991.863 611.39 963.563 672C957.213 687.75 953.213 704.09 951.563 721C951.063 932 950.893 1143 951.063 1354C772.733 1354.17 594.396 1354 416.063 1353.5C268.016 1345.09 152.182 1280.25 68.5626 1159C27.2946 1095.53 4.62864 1025.86 0.562641 950C0.0626406 736 -0.104359 522 0.0626406 308Z" fill="#FE0000"/>
<path opacity="0.996" fill-rule="evenodd" clip-rule="evenodd" d="M1769.06 308C1950.73 307.833 2132.39 308 2314.06 308.5C2458.05 319.874 2570.55 384.708 2651.56 503C2693.68 568.37 2716.35 640.04 2719.56 718C2720.06 930 2720.23 1142 2720.06 1354C2632.39 1354 2544.73 1354 2457.06 1354C2457.23 1142 2457.06 930 2456.56 718C2447.42 655.22 2414.26 610.39 2357.06 583.5C2339.75 576.34 2321.75 572.01 2303.06 570.5C2212.39 570 2121.73 569.83 2031.06 570C2031.23 696.67 2031.06 823.33 2030.56 950C2020.12 1085.76 1960.62 1193.92 1852.06 1274.5C1781.12 1324.37 1702.12 1350.7 1615.06 1353.5C1436.73 1354 1258.39 1354.17 1080.06 1354C1080.06 1266.33 1080.06 1178.67 1080.06 1091C1260.39 1091.17 1440.73 1091 1621.06 1090.5C1673.6 1083.33 1714.43 1057.83 1743.56 1014C1758.09 990.73 1766.43 965.4 1768.56 938C1769.06 728 1769.23 518 1769.06 308Z" fill="#FE0000"/>
<path opacity="0.997" fill-rule="evenodd" clip-rule="evenodd" d="M1163.06 700C1321.73 700 1480.39 700 1639.06 700C1639.23 760 1639.06 820 1638.56 880C1631.39 919.84 1608.55 946.01 1570.06 958.5C1564.8 959.89 1559.47 960.89 1554.06 961.5C1396.06 962 1238.06 962.17 1080.06 962C1079.89 904.33 1080.06 846.67 1080.56 789C1086.87 739.53 1114.37 709.86 1163.06 700Z" fill="#194A81"/>
</svg>
