<svg width="28" height="28" viewBox="0 0 28 28" fill="none" xmlns="http://www.w3.org/2000/svg">
<g id="solar:settings-linear">
<g id="Group">
<path id="Vector" d="M14 17.125C15.864 17.125 17.375 15.614 17.375 13.75C17.375 11.886 15.864 10.375 14 10.375C12.136 10.375 10.625 11.886 10.625 13.75C10.625 15.614 12.136 17.125 14 17.125Z" stroke="black" stroke-width="1.5"/>
<path id="Vector_2" d="M15.9856 2.671C15.5728 2.5 15.0485 2.5 14 2.5C12.9515 2.5 12.4273 2.5 12.0144 2.671C11.7412 2.78408 11.493 2.94988 11.2839 3.15894C11.0749 3.368 10.9091 3.6162 10.796 3.88937C10.6925 4.14025 10.6509 4.43388 10.6351 4.86025C10.6281 5.16849 10.5429 5.46989 10.3874 5.73614C10.232 6.0024 10.0114 6.22477 9.74638 6.38238C9.47739 6.53317 9.17448 6.61311 8.8661 6.61469C8.55773 6.61626 8.25402 6.53942 7.9835 6.39138C7.6055 6.19113 7.33213 6.08088 7.061 6.04488C6.46961 5.9671 5.87154 6.12735 5.39825 6.49037C5.045 6.76375 4.78175 7.21713 4.2575 8.125C3.73325 9.03287 3.47 9.48625 3.41263 9.93062C3.37397 10.2236 3.39341 10.5214 3.46985 10.8069C3.54629 11.0924 3.67823 11.36 3.85813 11.5945C4.02463 11.8105 4.2575 11.9916 4.61863 12.2189C5.15075 12.553 5.49275 13.1222 5.49275 13.75C5.49275 14.3778 5.15075 14.947 4.61863 15.28C4.2575 15.5084 4.0235 15.6895 3.85813 15.9055C3.67823 16.14 3.54629 16.4076 3.46985 16.6931C3.39341 16.9786 3.37397 17.2764 3.41263 17.5694C3.47113 18.0126 3.73325 18.4671 4.25638 19.375C4.78175 20.2829 5.04388 20.7362 5.39825 21.0096C5.63274 21.1895 5.90038 21.3215 6.18587 21.3979C6.47136 21.4743 6.76912 21.4938 7.06213 21.4551C7.33213 21.4191 7.6055 21.3089 7.9835 21.1086C8.25402 20.9606 8.55773 20.8837 8.8661 20.8853C9.17448 20.8869 9.47739 20.9668 9.74638 21.1176C10.2898 21.4326 10.6126 22.012 10.6351 22.6398C10.6509 23.0673 10.6914 23.3597 10.796 23.6106C10.9091 23.8838 11.0749 24.132 11.2839 24.3411C11.493 24.5501 11.7412 24.7159 12.0144 24.829C12.4273 25 12.9515 25 14 25C15.0485 25 15.5728 25 15.9856 24.829C16.2588 24.7159 16.507 24.5501 16.7161 24.3411C16.9251 24.132 17.0909 23.8838 17.204 23.6106C17.3075 23.3597 17.3491 23.0673 17.3649 22.6398C17.3874 22.012 17.7103 21.4315 18.2536 21.1176C18.5226 20.9668 18.8255 20.8869 19.1339 20.8853C19.4423 20.8837 19.746 20.9606 20.0165 21.1086C20.3945 21.3089 20.6679 21.4191 20.9379 21.4551C21.2309 21.4938 21.5286 21.4743 21.8141 21.3979C22.0996 21.3215 22.3673 21.1895 22.6018 21.0096C22.9561 20.7374 23.2183 20.2829 23.7425 19.375C24.2668 18.4671 24.53 18.0138 24.5874 17.5694C24.626 17.2764 24.6066 16.9786 24.5302 16.6931C24.4537 16.4076 24.3218 16.14 24.1419 15.9055C23.9754 15.6895 23.7425 15.5084 23.3814 15.2811C23.1178 15.1209 22.8993 14.8964 22.7464 14.6285C22.5935 14.3607 22.5112 14.0584 22.5073 13.75C22.5073 13.1222 22.8493 12.553 23.3814 12.22C23.7425 11.9916 23.9765 11.8105 24.1419 11.5945C24.3218 11.36 24.4537 11.0924 24.5302 10.8069C24.6066 10.5214 24.626 10.2236 24.5874 9.93062C24.5289 9.48737 24.2668 9.03287 23.7436 8.125C23.2183 7.21713 22.9561 6.76375 22.6018 6.49037C22.3673 6.31048 22.0996 6.17854 21.8141 6.1021C21.5286 6.02566 21.2309 6.00621 20.9379 6.04488C20.6679 6.08088 20.3945 6.19113 20.0154 6.39138C19.745 6.53922 19.4415 6.61595 19.1333 6.61438C18.8252 6.6128 18.5225 6.53297 18.2536 6.38238C17.9886 6.22477 17.7681 6.0024 17.6126 5.73614C17.4571 5.46989 17.3719 5.16849 17.3649 4.86025C17.3491 4.43275 17.3086 4.14025 17.204 3.88937C17.0909 3.6162 16.9251 3.368 16.7161 3.15894C16.507 2.94988 16.2588 2.78408 15.9856 2.671Z" stroke="black" stroke-width="1.5"/>
</g>
</g>
</svg>
